<?xml version="1.0" standalone="no"?>
<!DOCTYPE svg PUBLIC "-//W3C//DTD SVG 20010904//EN"
 "http://www.w3.org/TR/2001/REC-SVG-20010904/DTD/svg10.dtd">
<svg version="1.0" xmlns="http://www.w3.org/2000/svg"
 width="200.000000pt" height="200.000000pt" viewBox="0 0 200.000000 200.000000"
 preserveAspectRatio="xMidYMid meet">
<metadata>
Created by potrace 1.15, written by Peter Selinger 2001-2017
</metadata>
<g transform="translate(0.000000,200.000000) scale(0.100000,-0.100000)"
fill="#000000" stroke="none">
<path d="M810 1880 c-276 -58 -516 -252 -631 -507 -58 -129 -74 -212 -73 -378
1 -133 4 -160 28 -239 14 -48 40 -116 57 -150 33 -67 88 -156 96 -156 3 0 2
25 -2 55 -21 169 7 324 82 459 46 82 101 149 116 139 15 -9 130 -3 142 8 5 5
-19 9 -64 9 -45 0 -70 4 -66 10 3 6 35 10 71 10 62 0 64 1 64 25 0 21 -5 25
-31 25 -17 0 -28 4 -24 10 4 6 -14 10 -47 11 -44 0 -49 2 -31 11 16 8 23 22
26 57 8 65 18 111 26 111 10 0 32 -70 38 -117 3 -25 10 -43 17 -43 7 0 39 13
72 29 130 65 309 92 309 46 0 -12 -9 -21 -25 -25 -16 -4 -21 -8 -13 -13 17
-11 60 2 67 19 3 8 3 21 0 29 -15 38 161 4 281 -54 94 -46 115 -43 115 17 0
21 7 47 15 58 8 10 15 29 15 42 0 12 5 22 10 22 6 0 10 -13 10 -29 0 -17 5
-33 10 -36 6 -3 10 -26 10 -49 0 -34 5 -47 23 -59 21 -15 19 -16 -48 -17 -49
0 -66 -3 -55 -10 12 -8 11 -10 -7 -10 -18 0 -23 -6 -23 -25 0 -24 3 -25 54
-25 30 0 58 -4 61 -10 4 -6 -17 -10 -55 -10 -43 0 -60 -4 -58 -12 3 -7 28 -11
74 -9 l69 2 38 -50 c46 -61 98 -165 123 -246 22 -75 25 -265 5 -343 -7 -29
-11 -55 -9 -58 9 -8 99 123 137 201 59 118 81 209 88 355 9 189 -25 333 -118
497 -57 102 -206 254 -306 312 -203 120 -439 159 -663 111z m179 -76 c1 -43
-2 -63 -9 -59 -6 4 -10 -7 -10 -27 0 -19 -5 -39 -10 -44 -7 -7 -4 -17 8 -30
21 -22 24 -52 8 -73 -16 -21 -14 -111 3 -111 10 0 12 -8 7 -31 -3 -17 -6 -44
-6 -60 0 -16 -4 -29 -10 -29 -5 0 -10 5 -10 10 0 6 -9 20 -20 32 -22 24 -26
38 -9 38 5 0 7 5 4 10 -3 6 -17 10 -30 10 -13 0 -37 11 -53 25 -27 22 -42 24
-42 4 0 -5 7 -5 17 -2 11 4 14 3 9 -5 -11 -18 -66 -15 -66 4 0 8 4 13 9 10 5
-3 11 1 15 9 3 8 12 15 21 15 8 0 15 6 15 13 0 19 -37 50 -49 42 -14 -8 -14
-35 -1 -35 6 0 10 5 10 10 0 6 5 10 10 10 19 0 10 -20 -12 -29 -34 -13 -43 -9
-40 17 2 15 -2 22 -12 22 -20 0 -20 10 -2 35 12 16 12 22 -1 42 -15 22 -10 48
8 38 5 -4 9 -1 9 4 0 17 -30 13 -36 -4 -4 -8 -10 -15 -16 -15 -5 0 -6 6 -2 13
5 9 3 9 -7 -1 -17 -16 -17 -98 -1 -114 9 -9 12 -8 12 6 0 16 3 15 19 -5 22
-27 14 -42 -20 -37 -15 2 -25 12 -29 28 -5 21 -11 24 -37 22 -23 -3 -34 2 -42
17 -25 45 3 87 51 77 26 -5 33 1 29 26 -2 17 39 29 60 18 11 -7 23 -9 27 -6 3
3 0 6 -6 6 -7 0 -12 5 -12 10 0 6 7 10 15 10 8 0 15 -4 15 -9 0 -5 9 -11 20
-14 20 -5 28 -27 10 -27 -5 0 -10 5 -10 10 0 6 -4 10 -10 10 -13 0 -13 -27 1
-35 5 -4 19 1 30 11 20 18 26 44 9 44 -9 0 -50 35 -50 43 0 9 60 5 65 -4 3 -5
-1 -6 -9 -3 -9 3 -16 1 -16 -4 0 -22 18 -21 44 3 17 15 39 25 58 25 26 0 29 2
18 15 -10 11 -9 18 3 30 9 8 21 15 28 15 7 0 9 3 6 7 -6 5 10 33 18 33 1 0 3
-30 4 -66z m68 12 c11 -14 13 -21 5 -24 -20 -6 -3 -22 24 -22 14 0 35 -11 48
-25 27 -29 46 -32 46 -9 0 14 -2 15 -17 3 -14 -12 -16 -12 -11 1 6 19 68 24
68 5 0 -7 -13 -19 -30 -27 -34 -14 -38 -29 -14 -52 19 -19 44 -21 44 -3 0 21
-12 28 -27 16 -9 -8 -13 -8 -13 -1 0 12 56 42 64 34 3 -3 3 -16 0 -28 -5 -18
-2 -24 10 -24 18 0 22 -15 6 -25 -14 -9 -12 -48 3 -64 10 -10 8 -15 -7 -27
-18 -12 -18 -14 -3 -14 10 0 20 7 24 16 4 12 8 13 14 3 12 -20 30 35 22 71 -5
29 -23 52 -23 31 0 -6 -9 -2 -20 9 -12 12 -18 25 -15 30 9 14 42 12 52 -2 8
-13 9 -18 12 -38 0 -5 14 -7 30 -4 24 5 32 1 46 -19 29 -45 -4 -88 -55 -72
-11 4 -21 2 -21 -4 -1 -6 -2 -16 -3 -22 -2 -23 -34 -35 -56 -21 -11 6 -23 12
-27 12 -5 0 -2 -4 6 -9 7 -5 10 -14 7 -20 -9 -13 -66 23 -66 42 0 8 3 8 12 -1
16 -16 28 -15 28 3 0 18 -31 20 -48 3 -19 -19 -14 -31 18 -53 16 -11 30 -24
30 -30 0 -15 -63 -12 -68 3 -2 7 2 10 12 6 9 -3 16 -1 16 5 0 17 -19 13 -47
-9 -14 -11 -36 -20 -49 -20 -25 0 -41 -16 -22 -22 8 -3 -1 -19 -23 -42 l-36
-38 -2 67 c-1 38 2 64 7 61 18 -11 22 77 5 103 -12 19 -13 26 -3 29 9 3 10 6
0 12 -9 6 -9 13 3 31 15 25 12 109 -4 109 -11 0 -12 44 -2 90 6 31 7 32 20 14
7 -10 21 -28 30 -38z"/>
<path d="M797 350 c-27 -3 -53 -13 -58 -21 -21 -33 -2 -84 50 -133 31 -30 40
-59 21 -71 -16 -10 -40 15 -40 41 0 26 -10 30 -28 12 -15 -15 -15 -51 0 -66
19 -19 92 -15 111 6 28 31 20 64 -28 121 -49 58 -56 81 -24 81 14 0 24 -10 32
-30 6 -16 15 -30 19 -30 10 0 10 88 1 92 -5 2 -30 1 -56 -2z"/>
<path d="M185 315 c-32 -41 -55 -113 -55 -172 0 -39 2 -43 24 -43 23 0 24 2
18 65 -4 55 -2 65 11 65 23 0 54 -45 62 -90 6 -35 10 -40 34 -40 l28 0 -14 52
c-7 29 -16 86 -20 126 -6 71 -6 72 -34 72 -20 0 -35 -10 -54 -35z"/>
<path d="M895 225 l0 -125 27 0 c26 0 26 1 21 53 -4 41 -2 56 11 66 26 22 38
0 34 -63 -3 -55 -2 -56 23 -56 l26 0 -5 73 c-5 79 -14 97 -46 97 -12 0 -28 -6
-35 -12 -10 -11 -11 -3 -5 40 l7 52 -29 0 -29 0 0 -125z"/>
<path d="M1234 334 c3 -9 6 -65 6 -125 l0 -109 25 0 c23 0 24 4 27 62 2 50 6
63 21 66 15 3 17 -5 17 -62 0 -64 1 -66 25 -66 24 0 25 3 25 58 0 77 -17 107
-58 106 -31 -2 -32 -1 -32 42 0 43 -1 44 -31 44 -24 0 -30 -3 -25 -16z"/>
<path d="M343 263 c-16 -3 -23 -11 -23 -28 0 -34 18 -40 39 -14 10 12 23 19
29 15 22 -13 12 -33 -18 -39 -37 -8 -68 -52 -53 -76 7 -12 27 -17 75 -18 l64
-2 -8 71 c-5 40 -14 78 -20 85 -10 13 -40 15 -85 6z"/>
<path d="M1100 263 c-21 -8 -28 -22 -23 -44 7 -25 20 -24 33 1 6 11 17 20 25
20 8 0 15 -9 15 -20 0 -12 -7 -20 -18 -20 -35 0 -63 -30 -60 -63 l3 -32 74 -2
c57 -2 72 0 63 9 -7 7 -12 35 -12 63 0 79 -37 112 -100 88z"/>
<path d="M1438 263 c-12 -3 -18 -14 -18 -34 0 -34 14 -38 30 -9 13 24 36 26
44 4 9 -23 8 -24 -19 -24 -35 0 -67 -35 -63 -68 3 -26 5 -27 76 -29 68 -2 72
-1 62 17 -5 10 -10 41 -10 69 0 71 -30 93 -102 74z"/>
<path d="M1597 263 c-13 -3 -17 -12 -15 -31 4 -32 24 -40 33 -12 8 25 38 23
43 -3 3 -12 -3 -17 -22 -17 -30 0 -66 -32 -66 -57 0 -35 15 -42 83 -42 62 1
66 2 57 19 -6 10 -10 44 -10 74 0 44 -4 57 -19 66 -20 10 -51 11 -84 3z"/>
</g>
</svg>
